<?xml version="1.0" encoding="UTF-8"?>
<svg width="59px" height="49px" viewBox="0 0 59 49" version="1.1" xmlns="http://www.w3.org/2000/svg" xmlns:xlink="http://www.w3.org/1999/xlink">
    <!-- Generator: Sketch 52.6 (67491) - http://www.bohemiancoding.com/sketch -->
    <title>Group</title>
    <desc>Created with Sketch.</desc>
    <g id="Page-1" stroke="none" stroke-width="1" fill="none" fill-rule="evenodd">
        <g id="noun_Burger_806722(1)" fill="#F6E8D3">
            <g id="Group">
                <path d="M3.161,6.322 C1.416,6.322 0,4.906 0,3.161 C0,1.415 1.416,0 3.161,0 L55.841,0 C57.586,0 59.002,1.415 59.002,3.161 C59.002,4.906 57.586,6.322 55.841,6.322 L3.161,6.322 Z" id="Path"></path>
                <path d="M3.162,27.394 C1.415,27.394 0,25.979 0,24.232 C0,22.487 1.415,21.071 3.161,21.071 L55.84,21.071 C57.585,21.071 59,22.487 59,24.232 C59,25.978 57.585,27.393 55.84,27.393 L3.162,27.393 L3.162,27.394 Z" id="Path"></path>
                <path d="M3.162,48.465 C1.415,48.465 0,47.049 0,45.303 C0,43.558 1.415,42.143 3.162,42.143 L55.84,42.143 C57.586,42.143 59.002,43.558 59.002,45.303 C59.002,47.049 57.586,48.465 55.84,48.465 L3.162,48.465 Z" id="Path"></path>
            </g>
        </g>
    </g>
</svg>