<svg viewBox="0 0 122 122" xmlns="http://www.w3.org/2000/svg"><g fill-rule="nonzero"><path d="M61 121.744c-20.408 0-39.356-10.215-50.684-27.325a2.563 2.563 0 114.274-2.83c10.376 15.673 27.726 25.03 46.41 25.03 30.667 0 55.618-24.951 55.618-55.619 0-11.883-3.723-23.233-10.767-32.823a2.563 2.563 0 114.131-3.034c7.695 10.476 11.762 22.875 11.762 35.857 0 33.495-27.25 60.744-60.744 60.744zM6.607 84.194a2.564 2.564 0 01-2.395-1.65l-.095-.252a2.563 2.563 0 014.798-1.804l.087.23a2.563 2.563 0 01-2.395 3.476zM3.365 71.558a2.564 2.564 0 01-2.536-2.212A61.077 61.077 0 01.256 61C.256 27.506 27.506.256 61 .256a60.664 60.664 0 0128.788 7.281 2.563 2.563 0 01-2.44 4.508A55.518 55.518 0 0061 5.382C30.332 5.382 5.382 30.332 5.382 61c0 2.556.177 5.128.525 7.643a2.563 2.563 0 01-2.542 2.915zM99.27 19.802a2.553 2.553 0 01-1.685-.633l-.19-.166a2.563 2.563 0 113.367-3.865l.196.17a2.563 2.563 0 01-1.688 4.494z"/><path d="M61 67.92A6.928 6.928 0 0154.08 61 6.928 6.928 0 0161 54.08 6.929 6.929 0 0167.92 61 6.929 6.929 0 0161 67.92zm0-8.714c-.99 0-1.794.805-1.794 1.794 0 .99.805 1.795 1.794 1.795.99 0 1.795-.805 1.795-1.795 0-.99-.805-1.794-1.795-1.794zM61 51.77a3.336 3.336 0 01-3.332-3.332A3.335 3.335 0 0161 45.106a3.335 3.335 0 013.331 3.332A3.335 3.335 0 0161 51.77zm0-5.127c-.99 0-1.794.806-1.794 1.795 0 .99.805 1.794 1.794 1.794.99 0 1.795-.805 1.795-1.794 0-.99-.805-1.795-1.795-1.795zM61 77.4a3.336 3.336 0 01-3.332-3.332A3.336 3.336 0 0161 70.736a3.335 3.335 0 013.331 3.332A3.335 3.335 0 0161 77.4zm0-5.126c-.99 0-1.794.805-1.794 1.794 0 .99.805 1.794 1.794 1.794.99 0 1.795-.805 1.795-1.794 0-.99-.805-1.794-1.795-1.794zM70.062 55.522a3.31 3.31 0 01-2.356-.974 3.312 3.312 0 01-.975-2.357c0-.889.346-1.725.973-2.354a3.31 3.31 0 012.358-.977c.89 0 1.728.347 2.357.977a3.31 3.31 0 01.973 2.354 3.31 3.31 0 01-.975 2.356 3.306 3.306 0 01-2.355.975zm0-5.126c-.473 0-.936.192-1.27.528a1.806 1.806 0 00-.526 1.267c0 .473.192.935.527 1.27.333.333.796.526 1.269.526.472 0 .935-.193 1.269-.527.335-.335.526-.797.526-1.269 0-.472-.192-.934-.526-1.269a1.807 1.807 0 00-1.27-.526z"/><path d="M51.938 73.646a3.31 3.31 0 01-2.355-.975 3.309 3.309 0 01-.975-2.356c0-.89.346-1.726.974-2.355a3.311 3.311 0 012.356-.976c.89 0 1.727.346 2.356.975.629.628.975 1.465.975 2.356a3.31 3.31 0 01-.975 2.356 3.312 3.312 0 01-2.356.975zm0-5.126c-.471 0-.934.191-1.268.525a1.809 1.809 0 00-.527 1.27c0 .472.193.935.527 1.27.334.333.797.525 1.268.525.472 0 .934-.192 1.269-.525.335-.336.527-.798.527-1.27 0-.473-.193-.935-.527-1.27a1.807 1.807 0 00-1.269-.525z" stroke="#979797"/><path d="M73.815 64.585a3.335 3.335 0 01-3.331-3.332 3.335 3.335 0 013.331-3.332 3.335 3.335 0 013.332 3.332 3.335 3.335 0 01-3.332 3.332zm0-5.126c-.99 0-1.795.805-1.795 1.794 0 .99.806 1.795 1.795 1.795.99 0 1.795-.805 1.795-1.795 0-.99-.805-1.794-1.795-1.794z"/><path d="M48.185 64.585a3.336 3.336 0 01-3.332-3.332 3.336 3.336 0 013.332-3.332 3.335 3.335 0 013.332 3.332 3.336 3.336 0 01-3.332 3.332zm0-5.126c-.99 0-1.795.805-1.795 1.794 0 .99.806 1.795 1.795 1.795.99 0 1.794-.805 1.794-1.795 0-.99-.805-1.794-1.794-1.794z" stroke="#979797"/><path d="M51.938 55.522c-.89 0-1.727-.346-2.355-.975a3.31 3.31 0 01-.975-2.356c0-.89.346-1.726.974-2.355a3.311 3.311 0 012.356-.976c.891 0 1.728.347 2.357.976.628.629.974 1.465.974 2.355 0 .89-.346 1.727-.975 2.356a3.31 3.31 0 01-2.356.975zm0-5.126c-.472 0-.934.192-1.269.526a1.807 1.807 0 00-.526 1.27c0 .472.192.934.526 1.268.334.335.797.527 1.27.527.471 0 .933-.192 1.268-.526.335-.336.527-.798.527-1.27s-.192-.934-.527-1.269a1.807 1.807 0 00-1.269-.526zM70.062 73.646c-.89 0-1.726-.347-2.356-.975a3.31 3.31 0 01-.975-2.356c0-.89.346-1.725.973-2.355a3.31 3.31 0 012.358-.976c.89 0 1.727.346 2.356.976.627.627.974 1.464.974 2.355a3.31 3.31 0 01-.975 2.355 3.309 3.309 0 01-2.355.976zm0-5.126c-.473 0-.935.192-1.27.527a1.808 1.808 0 00-.526 1.268c0 .472.192.935.527 1.27.334.333.796.525 1.269.525.472 0 .935-.192 1.269-.527.335-.335.526-.797.526-1.268 0-.473-.193-.935-.527-1.27a1.806 1.806 0 00-1.268-.525zM61 42.774c-9.887 0-17.93-8.041-17.93-17.925 0-9.887 8.043-17.93 17.93-17.93s17.93 8.043 17.93 17.93c0 9.884-8.043 17.925-17.93 17.925zm0-30.73c-7.06 0-12.805 5.744-12.805 12.805 0 7.057 5.744 12.799 12.805 12.799 7.06 0 12.805-5.742 12.805-12.799 0-7.06-5.745-12.805-12.805-12.805z"/><path d="M92.321 60.854a17.991 17.991 0 01-15.539-8.967 17.927 17.927 0 01-2.405-8.95 17.99 17.99 0 018.965-15.54 17.945 17.945 0 018.954-2.405c6.39 0 12.345 3.434 15.541 8.963a17.931 17.931 0 012.405 8.95 17.994 17.994 0 01-8.97 15.542 17.91 17.91 0 01-8.95 2.407zm-.025-30.736a12.81 12.81 0 00-6.392 1.718 12.85 12.85 0 00-6.4 11.1c0 2.232.593 4.441 1.717 6.388a12.85 12.85 0 0011.1 6.404c2.233 0 4.441-.595 6.387-1.72a12.855 12.855 0 006.408-11.103c0-2.232-.594-4.44-1.717-6.387a12.861 12.861 0 00-11.103-6.4zM92.295 97.008c-3.131 0-6.226-.831-8.953-2.404a17.99 17.99 0 01-8.965-15.54c0-3.131.832-6.226 2.405-8.951a17.997 17.997 0 0115.545-8.969c3.13 0 6.223.831 8.945 2.403a17.996 17.996 0 018.97 15.545c0 3.13-.832 6.223-2.404 8.946a18 18 0 01-15.543 8.97zm.032-30.738a12.857 12.857 0 00-11.105 6.406 12.796 12.796 0 00-1.718 6.388 12.85 12.85 0 006.401 11.1 12.806 12.806 0 006.39 1.718c4.566 0 8.821-2.455 11.104-6.407a12.782 12.782 0 001.717-6.383c0-4.568-2.455-8.824-6.406-11.105a12.78 12.78 0 00-6.383-1.717z"/><path d="M61 115.082c-9.887 0-17.93-8.044-17.93-17.93 0-9.885 8.043-17.926 17.93-17.926s17.93 8.041 17.93 17.925c0 9.887-8.043 17.93-17.93 17.93zm0-30.73c-7.06 0-12.805 5.742-12.805 12.8 0 7.06 5.744 12.804 12.805 12.804 7.06 0 12.805-5.744 12.805-12.805 0-7.057-5.745-12.799-12.805-12.799z"/><path d="M29.703 97.008a17.989 17.989 0 01-15.542-8.97 17.924 17.924 0 01-2.404-8.95 17.99 17.99 0 018.971-15.541 17.915 17.915 0 018.945-2.403c6.394 0 12.35 3.437 15.545 8.969a17.924 17.924 0 012.404 8.95 17.99 17.99 0 01-8.97 15.541 17.927 17.927 0 01-8.95 2.404zm-.03-30.738c-2.23 0-4.438.594-6.383 1.717a12.849 12.849 0 00-6.407 11.101c0 2.232.594 4.44 1.718 6.387a12.849 12.849 0 0011.102 6.407c2.231 0 4.44-.594 6.386-1.718a12.849 12.849 0 006.407-11.101c0-2.232-.594-4.44-1.718-6.387a12.857 12.857 0 00-11.105-6.406zM29.678 60.854a17.91 17.91 0 01-8.952-2.408 17.985 17.985 0 01-8.97-15.537c0-3.13.832-6.226 2.405-8.952a17.99 17.99 0 0115.54-8.965c3.132 0 6.227.832 8.951 2.405a17.988 17.988 0 018.97 15.54c0 3.131-.831 6.226-2.404 8.95a17.992 17.992 0 01-15.54 8.967zm.023-30.736a12.85 12.85 0 00-11.1 6.401 12.807 12.807 0 00-1.718 6.39c0 4.565 2.455 8.818 6.406 11.098a12.78 12.78 0 006.389 1.72c4.566 0 8.82-2.453 11.1-6.403a12.792 12.792 0 001.718-6.387c0-4.567-2.454-8.821-6.406-11.1a12.796 12.796 0 00-6.389-1.72z"/></g></svg>