<svg viewBox="0 0 180 132" xmlns="http://www.w3.org/2000/svg"><g fill-rule="evenodd"><path d="M177.84 131.323h-25.096a1.867 1.867 0 110-3.733h25.097a1.867 1.867 0 110 3.733zm-43.785 0H88.133c-7.215 0-13.085-5.862-13.085-13.067V69.733c0-1.031.837-1.867 1.87-1.867 1.031 0 1.868.836 1.868 1.867v48.523c0 5.147 4.193 9.334 9.347 9.334h45.922a1.867 1.867 0 110 3.733zM76.917 52.935a1.868 1.868 0 01-1.869-1.866V39.871c0-1.03.837-1.866 1.87-1.866H177.84c1.032 0 1.869.835 1.869 1.866 0 1.03-.837 1.866-1.87 1.866H78.787v9.332c0 1.03-.837 1.866-1.869 1.866z" fill-rule="nonzero"/><path d="M121.772 41.737H82.524c-6.183 0-11.214-5.023-11.214-11.198 0-6.174 5.031-11.198 11.214-11.198H90c1.032 0 1.869.836 1.869 1.866 0 1.031-.837 1.867-1.869 1.867h-7.476c-4.122 0-7.476 3.349-7.476 7.465 0 4.117 3.354 7.466 7.476 7.466h39.248c1.033 0 1.87.835 1.87 1.866 0 1.03-.837 1.866-1.87 1.866z"/><path d="M73.18 93.995H58.761a1.868 1.868 0 01-1.869-1.866c0-1.03.837-1.866 1.869-1.866h14.417c1.032 0 1.87.835 1.87 1.866a1.868 1.868 0 01-1.87 1.866zm-33.108 0H2.16A1.868 1.868 0 01.29 92.13v-74.12c0-1.032.837-1.867 1.87-1.867 1.031 0 1.868.835 1.868 1.866v72.255h36.044c1.032 0 1.87.835 1.87 1.866a1.868 1.868 0 01-1.87 1.866zm48.059-70.921a1.868 1.868 0 01-1.869-1.867c0-1.03.837-1.866 1.869-1.866 4.122 0 7.476-3.349 7.476-7.465 0-4.117-3.354-7.466-7.476-7.466H5.363a1.868 1.868 0 01-1.869-1.866c0-1.03.837-1.867 1.869-1.867h82.768c6.183 0 11.214 5.024 11.214 11.199 0 6.174-5.03 11.198-11.214 11.198zM147.938 81.44c-5.153 0-9.345-3.882-9.345-8.654 0-4.771 4.192-8.652 9.345-8.652 5.152 0 9.344 3.881 9.344 8.653 0 4.771-4.192 8.653-9.345 8.653zm0-13.574c-3.092 0-5.607 2.208-5.607 4.92 0 2.714 2.515 4.921 5.607 4.921 3.091 0 5.606-2.207 5.606-4.92s-2.515-4.92-5.607-4.92z" fill-rule="nonzero"/><path d="M106.82 95.014a1.866 1.866 0 01-.586-3.639l41.117-13.574a1.87 1.87 0 012.36 1.187 1.865 1.865 0 01-1.187 2.358l-41.117 13.573a1.88 1.88 0 01-.587.095z"/><path d="M147.938 105.194c-5.153 0-9.345-3.882-9.345-8.654 0-4.771 4.192-8.653 9.345-8.653 5.152 0 9.344 3.882 9.344 8.653 0 4.772-4.192 8.654-9.345 8.654zm0-13.574c-3.092 0-5.607 2.207-5.607 4.92 0 2.714 2.515 4.92 5.607 4.92 3.091 0 5.606-2.206 5.606-4.92 0-2.713-2.515-4.92-5.607-4.92z" fill-rule="nonzero"/><path d="M147.938 91.621c-.195 0-.393-.03-.587-.095l-41.117-13.574a1.866 1.866 0 111.173-3.544l41.117 13.574a1.865 1.865 0 01-.586 3.639zM9.871 10.258h7.84v7.84H9.87zM20.322 10.258h7.84v7.84h-7.84zM31.645 10.258h7.84v7.84h-7.84zM42.967 10.258h7.84v7.84h-7.84zM54.29 10.258h7.84v7.84h-7.84zM65.613 10.258h7.84v7.84h-7.84zM9.871 77.322h7.84v7.84H9.87zM20.322 77.322h7.84v7.84h-7.84zM31.645 77.322h7.84v7.84h-7.84zM42.967 77.322h7.84v7.84h-7.84zM54.29 77.322h7.84v7.84h-7.84zM83.903 46.838h7.84v7.84h-7.84zM95.225 46.838h7.84v7.84h-7.84zM106.548 46.838h7.84v7.84h-7.84zM117.871 46.838h7.84v7.84h-7.84zM129.193 46.838h7.84v7.84h-7.84zM140.516 46.838h7.84v7.84h-7.84zM151.838 46.838h7.84v7.84h-7.84zM162.29 46.838h7.84v7.84h-7.84zM83.903 114.774h7.84v7.84h-7.84zM95.225 114.774h7.84v7.84h-7.84zM106.548 114.774h7.84v7.84h-7.84zM117.871 114.774h7.84v7.84h-7.84zM129.193 114.774h7.84v7.84h-7.84zM140.516 114.774h7.84v7.84h-7.84zM151.838 114.774h7.84v7.84h-7.84zM162.29 114.774h7.84v7.84h-7.84z"/></g></svg>