<svg width="128" height="122" xmlns="http://www.w3.org/2000/svg"><path d="M0 67.373h9.078V54.627H0v12.746zm11.801 20.94h9.078V32.776h-9.078v55.537zm11.802 16.388h9.078V16.388h-9.078v88.313zM35.404 122h9.078V0h-9.078v122zm23.603-41.88h9.078V40.97h-9.078v39.15zm12.71 8.193h9.077V33.687h-9.078v54.626zm11.8-4.552h9.079V38.24h-9.078V83.76zm11.802-9.104h9.078V46.433H95.32v28.224zm11.802-6.373h9.078V52.806h-9.078v15.478zm11.801-13.657v12.746H128V54.627h-9.078zM47.206 104.7h9.078V16.388h-9.078v88.313z" fill-rule="nonzero"/></svg>