<svg width="21" height="21" xmlns="http://www.w3.org/2000/svg"><g fill="#F6E8D3" fill-rule="evenodd"><path d="M20.947 6.174c-.05-1.116-.23-1.883-.489-2.548a5.125 5.125 0 00-1.214-1.862 5.17 5.17 0 00-1.859-1.21c-.669-.259-1.432-.44-2.548-.488C13.713.012 13.356 0 10.504 0 7.652 0 7.295.012 6.175.062 5.06.11 4.292.292 3.627.55a5.125 5.125 0 00-1.863 1.214 5.17 5.17 0 00-1.21 1.858c-.259.67-.44 1.432-.488 2.548C.012 7.294 0 7.65 0 10.502c0 2.851.012 3.208.062 4.328.049 1.116.23 1.883.488 2.548a5.178 5.178 0 001.214 1.862 5.17 5.17 0 001.86 1.21c.668.259 1.431.44 2.547.488 1.12.05 1.477.062 4.33.062 2.85 0 3.208-.012 4.328-.062 1.116-.049 1.883-.23 2.548-.488a5.372 5.372 0 003.073-3.072c.259-.669.44-1.432.488-2.548.05-1.12.062-1.477.062-4.328s-.004-3.208-.053-4.328zm-1.892 8.574c-.045 1.026-.217 1.58-.36 1.949A3.484 3.484 0 0116.7 18.69c-.37.144-.927.316-1.95.361-1.107.05-1.44.062-4.242.062S7.37 19.1 6.265 19.05c-1.025-.045-1.58-.217-1.949-.36a3.232 3.232 0 01-1.206-.784 3.265 3.265 0 01-.784-1.206c-.143-.37-.315-.927-.36-1.949-.05-1.107-.062-1.44-.062-4.242s.012-3.138.062-4.242c.045-1.025.217-1.579.36-1.948.169-.456.435-.87.788-1.206a3.26 3.26 0 011.207-.784c.369-.143.927-.316 1.949-.36 1.108-.05 1.44-.062 4.242-.062 2.807 0 3.14.012 4.243.061 1.026.045 1.58.218 1.949.361.455.168.87.435 1.206.784.35.34.616.75.784 1.206.144.369.316.927.361 1.948.05 1.108.062 1.44.062 4.242s-.013 3.13-.062 4.238z" fill-rule="nonzero"/><path d="M9.975 4.2A5.776 5.776 0 004.2 9.975a5.776 5.776 0 005.775 5.775 5.776 5.776 0 005.775-5.775A5.776 5.776 0 009.975 4.2zm0 9.521a3.747 3.747 0 11.001-7.493 3.747 3.747 0 01-.001 7.493z" fill-rule="nonzero"/><path d="M17.85 4.725a1.575 1.575 0 11-3.15 0 1.575 1.575 0 013.15 0z"/></g></svg>