<svg viewBox="0 0 53 74" xmlns="http://www.w3.org/2000/svg"><path d="M26.6.839c-8.876 0-16.081 7.14-16.081 15.94v19.568c0 8.802 7.205 15.946 16.081 15.946 8.877 0 16.077-7.144 16.077-15.946V16.78c0-8.8-7.2-15.94-16.077-15.94zm-1.652 3.216v3.658c0 .717.544 1.269 1.248 1.269s1.252-.555 1.252-1.269V4.055l1.4.287c5.187 1.074 9.275 5.235 10.331 10.509l.283 1.423H31.03c-.705 0-1.248.552-1.248 1.268s.546 1.274 1.248 1.274h8.417V26.1H31.03c-.702 0-1.248.557-1.248 1.273 0 .716.543 1.269 1.248 1.269h8.417v7.284H31.03c-.702 0-1.248.558-1.248 1.274s.536 1.254 1.248 1.254h8.43l-.282 1.423c-1.056 5.273-5.14 9.447-10.331 10.52l-1.4.288v-3.659c0-.714-.548-1.269-1.252-1.269s-1.248.553-1.248 1.27v3.658l-1.399-.287c-5.187-1.074-9.277-5.233-10.336-10.51l-.282-1.422h8.43c.705 0 1.253-.555 1.253-1.269 0-.713-.55-1.273-1.253-1.273h-8.416V28.64h8.416c.705 0 1.253-.555 1.253-1.27 0-.713-.55-1.272-1.253-1.272h-8.416v-7.285h8.416c.702 0 1.253-.56 1.253-1.273 0-.714-.548-1.269-1.253-1.269h-8.43l.282-1.423C14.269 9.575 18.36 5.416 23.549 4.34l1.4-.284zM2.134 24.958c-.71 0-1.263.564-1.263 1.29v9.956c0 13.645 10.291 24.867 23.387 26.072l1.074.099v9.05H11.92c-.71 0-1.263.565-1.263 1.29 0 .725.55 1.285 1.263 1.285h29.356c.713 0 1.263-.56 1.263-1.285 0-.725-.552-1.29-1.263-1.29H27.864v-9.05l1.074-.099c13.096-1.205 23.387-12.43 23.387-26.072v-9.956c0-.723-.557-1.29-1.267-1.29-.71 0-1.268.567-1.268 1.29v9.956c0 13.003-10.412 23.606-23.193 23.606-12.782 0-23.198-10.6-23.198-23.606v-9.956c0-.723-.557-1.29-1.268-1.29h.003z" fill-rule="nonzero"/></svg>