<svg viewBox="0 0 116 124" xmlns="http://www.w3.org/2000/svg"><g fill-rule="nonzero"><path d="M64.668 54.749H20.3c-.8 0-1.45.65-1.45 1.453v25.826c0 .802.65 1.453 1.45 1.453h44.368c.801 0 1.45-.651 1.45-1.453V56.202c0-.803-.649-1.453-1.45-1.453zm-1.45 25.826H21.75v-22.92h41.468v22.92z"/><path d="M107.774 45.292L89.35 56.354v-7.227c0-4.11-3.333-7.453-7.428-7.453h-5.791c6.736-3.834 11.298-11.077 11.298-19.38C87.43 10.006 77.454.01 65.191.01c-11.165 0-20.41 8.3-21.977 19.062-2.944-4.573-8.063-7.615-13.885-7.615-9.114 0-16.528 7.43-16.528 16.562 0 5.664 2.855 10.668 7.195 13.656h-1.688c-4.095 0-7.427 3.344-7.427 7.453v10.32H5.436C2.439 59.448 0 61.895 0 64.902v8.428c0 3.007 2.44 5.454 5.436 5.454h5.445v10.32c0 4.109 3.332 7.453 7.427 7.453h19.377v4.746c0 2.937 2.384 5.328 5.317 5.328h3.978l-9.91 15.109a1.45 1.45 0 102.424 1.597l10.626-16.2 10.755 16.13a1.45 1.45 0 002.013.402 1.457 1.457 0 00.4-2.015L53.272 106.63h3.958c2.932 0 5.316-2.391 5.316-5.328v-4.746h19.377c4.095 0 7.428-3.344 7.428-7.454v-7.227l18.423 11.063c3.644 2.182 8.226-.458 8.226-4.68V49.971c0-4.232-4.592-6.856-8.226-4.68zM65.19 2.916c10.664 0 19.34 8.693 19.34 19.378 0 10.686-8.676 19.38-19.34 19.38-10.661 0-19.337-8.694-19.337-19.38 0-10.685 8.676-19.378 19.337-19.378zM54.253 41.674H38.66a16.602 16.602 0 006.64-9.476 22.392 22.392 0 008.953 9.476zM15.7 28.018c0-7.53 6.113-13.656 13.628-13.656 7.512 0 13.625 6.127 13.625 13.656 0 7.53-6.113 13.656-13.625 13.656-7.515 0-13.628-6.126-13.628-13.656zM5.436 75.877A2.544 2.544 0 012.9 73.329V64.9a2.544 2.544 0 012.536-2.547h5.445v13.523H5.436zm54.21 25.425a2.422 2.422 0 01-2.416 2.421H43.002a2.422 2.422 0 01-2.417-2.421v-4.746h19.061v4.746zm26.805-12.2c0 2.508-2.032 4.548-4.528 4.548H18.308c-2.496 0-4.527-2.04-4.527-4.548V49.127c0-2.507 2.031-4.547 4.527-4.547h63.615c2.496 0 4.528 2.04 4.528 4.547v39.975zm26.649-.845c0 1.982-2.147 3.2-3.835 2.187L89.351 78.487V59.743l19.914-11.957c1.687-1.011 3.835.202 3.835 2.186v38.285z"/><path d="M75.915 56.602c-3.013 0-5.464 2.46-5.464 5.483 0 3.023 2.451 5.482 5.464 5.482 3.014 0 5.466-2.46 5.466-5.482 0-3.023-2.452-5.483-5.466-5.483zm0 8.06a2.573 2.573 0 01-2.564-2.577 2.573 2.573 0 012.564-2.577 2.575 2.575 0 012.566 2.577 2.575 2.575 0 01-2.566 2.576zM75.915 70.662c-3.013 0-5.464 2.46-5.464 5.483 0 3.023 2.451 5.483 5.464 5.483 3.014 0 5.466-2.46 5.466-5.483 0-3.023-2.452-5.483-5.466-5.483zm0 8.06a2.573 2.573 0 01-2.564-2.577 2.573 2.573 0 012.564-2.577 2.575 2.575 0 012.566 2.577 2.575 2.575 0 01-2.566 2.576qzM29.329 19.205c-4.849 0-8.795 3.953-8.795 8.813 0 4.859 3.946 8.812 8.795 8.812 4.848 0 8.792-3.953 8.792-8.812 0-4.86-3.944-8.813-8.792-8.813zm0 14.72c-3.25 0-5.895-2.65-5.895-5.907s2.645-5.907 5.895-5.907c3.249 0 5.892 2.65 5.892 5.907 0 3.256-2.643 5.906-5.892 5.906zM65.191 34.345c6.631 0 12.025-5.405 12.025-12.05 0-6.645-5.394-12.05-12.025-12.05-6.628 0-12.022 5.405-12.022 12.05 0 6.645 5.394 12.05 12.022 12.05zm0-21.194c5.032 0 9.125 4.102 9.125 9.144s-4.093 9.144-9.125 9.144c-5.03 0-9.122-4.102-9.122-9.144s4.093-9.144 9.122-9.144z"/></g></svg>