<svg viewBox="0 0 50 40" xmlns="http://www.w3.org/2000/svg"><g fill="#F6E8D3" fill-rule="evenodd"><path d="M49.922 5.982a.995.995 0 00-.982-.61l-7.742.467C39.241 2.724 36.452.759 33.35.759c-4.674 0-10.098 2.911-10.805 10.963-1.72-.85-4.925-2.018-9.858-2.26A12.243 12.243 0 018.3 8.415C6.592 7.657 5.294 6.722 4.547 5.71a1 1 0 00-1.796.465c-.055.426-1.29 10.477 3.974 16.58 1.612 1.87 3.654 3.16 6.098 3.857-2.016.864-4.475 2.21-6.683 4.23-.022.019-2.206 1.822-4.895 2.542a1 1 0 00-.692 1.864c.14.07 8.049 3.937 17.558 3.937 7.587 0 16.194-2.462 22.686-11.275 2.102-2.855 3.26-6.897 3.26-11.382 0-1.386-.134-2.723-.363-4.004L49.67 7.11a1 1 0 00.25-1.129zM39.187 26.723c-5.698 7.735-13.742 11.23-23.909 10.4-4.723-.388-8.84-1.67-11.327-2.609 2.003-.924 3.401-2.078 3.504-2.165 4.332-3.964 9.853-5.135 9.908-5.146a1 1 0 00-.181-1.98c-3.832-.07-6.84-1.338-8.938-3.768-3.32-3.845-3.702-9.747-3.639-12.887.802.619 1.765 1.179 2.884 1.675a14.248 14.248 0 005.1 1.217c7.067.346 10.234 2.728 10.26 2.748a.998.998 0 001.62-.78c.042-7.865 4.615-10.668 8.88-10.668 2.557 0 4.853 1.762 6.447 4.545l.016.027c1.39 2.44 2.245 5.66 2.245 9.196 0 4.002-1.046 7.719-2.87 10.195zm3.993-16.432a19.034 19.034 0 00-.929-2.512l3.968-.24-3.04 2.752z" fill-rule="nonzero"/><path d="M33.15 7.89c-.03-.06-.06-.12-.09-.17-.04-.05-.08-.11-.13-.15-.09-.09-.2-.17-.32-.22-.37-.15-.82-.06-1.09.22-.05.04-.09.1-.13.15-.03.05-.06.11-.09.17-.02.06-.04.13-.05.19-.02.06-.02.13-.02.19 0 .14.02.26.07.39.05.12.13.23.22.32.04.05.09.09.15.13.05.03.11.06.17.09.06.02.13.04.19.06.06.01.13.01.19.01.14 0 .26-.02.39-.07.12-.05.23-.12.32-.22.09-.09.17-.2.22-.32.05-.13.07-.25.07-.39 0-.06 0-.13-.02-.19-.01-.06-.03-.13-.05-.19z"/></g></svg>